<?xml version="1.0" encoding="UTF-8" ?>
<!DOCTYPE svg PUBLIC "-//W3C//DTD SVG 1.1//EN" "http://www.w3.org/Graphics/SVG/1.1/DTD/svg11.dtd">
<svg viewBox="0 0 191 24" version="1.1" xmlns="http://www.w3.org/2000/svg">
<g id="#ffffffff">
<path fill="#ffffff" opacity="1.00" d=" M 52.00 0.76 C 53.70 0.75 55.41 0.74 57.11 0.73 C 59.68 5.39 61.94 10.20 64.33 14.95 C 66.64 10.18 68.97 5.41 71.50 0.75 C 73.17 0.75 74.83 0.75 76.50 0.75 C 76.50 8.00 76.50 15.25 76.50 22.50 C 75.08 22.50 73.66 22.50 72.25 22.50 C 72.24 17.75 72.29 13.00 72.21 8.25 C 70.09 12.24 68.04 16.27 65.87 20.25 C 65.16 20.21 63.73 20.15 63.01 20.11 C 60.37 16.48 58.72 12.20 56.47 8.31 C 56.52 13.04 56.49 17.77 56.50 22.50 C 55.00 22.50 53.50 22.50 52.00 22.50 C 52.00 15.25 52.00 8.01 52.00 0.76 Z" />
<path fill="#ffffff" opacity="1.00" d=" M 84.44 1.64 C 89.09 -0.58 95.27 0.34 98.64 4.40 C 102.07 8.59 101.88 15.34 98.24 19.35 C 93.77 24.04 85.25 23.95 81.02 18.97 C 76.49 13.85 78.00 4.47 84.44 1.64 M 87.21 5.18 C 81.29 7.68 82.79 19.09 89.86 18.54 C 95.84 18.80 97.76 10.53 94.32 6.65 C 92.63 4.64 89.57 4.26 87.21 5.18 Z" />
<path fill="#ffffff" opacity="1.00" d=" M 100.25 0.75 C 106.08 0.75 111.92 0.75 117.75 0.75 C 117.75 2.08 117.75 3.42 117.75 4.75 C 115.66 4.75 113.58 4.75 111.50 4.75 C 111.50 10.67 111.50 16.58 111.50 22.50 C 109.83 22.50 108.17 22.50 106.50 22.50 C 106.50 16.58 106.50 10.67 106.50 4.75 C 104.42 4.75 102.33 4.75 100.25 4.75 C 100.25 3.42 100.25 2.08 100.25 0.75 Z" />
<path fill="#ffffff" opacity="1.00" d=" M 123.52 2.29 C 127.58 -0.25 132.91 0.46 136.67 3.24 C 136.31 3.75 135.58 4.77 135.22 5.28 C 132.65 3.63 129.43 2.42 126.45 3.76 C 120.68 5.98 119.92 14.72 124.33 18.63 C 126.97 20.86 131.00 20.76 133.80 18.86 C 134.90 18.05 135.91 18.26 136.84 19.48 C 132.96 23.50 125.98 24.02 121.82 20.17 C 117.03 15.36 117.47 5.89 123.52 2.29 Z" />
<path fill="#ffffff" opacity="1.00" d=" M 139.50 0.75 C 140.25 0.75 141.75 0.75 142.50 0.75 C 142.50 7.17 142.50 13.58 142.50 20.00 C 145.58 20.00 148.67 20.00 151.76 20.01 C 151.76 20.63 151.74 21.88 151.74 22.50 C 147.66 22.49 143.58 22.50 139.50 22.50 C 139.50 15.25 139.50 8.00 139.50 0.75 Z" />
<path fill="#ffffff" opacity="1.00" d=" M 154.25 0.75 C 154.94 0.75 156.31 0.75 157.00 0.75 C 157.23 6.02 156.50 11.38 157.41 16.60 C 158.84 21.31 166.37 21.54 167.93 16.81 C 168.69 11.52 168.04 6.09 168.25 0.75 C 169.00 0.75 170.50 0.75 171.25 0.75 C 171.14 5.82 171.49 10.92 171.08 15.97 C 170.42 20.97 164.76 24.00 160.13 22.41 C 156.76 21.61 154.29 18.38 154.27 14.95 C 154.19 10.22 154.28 5.48 154.25 0.75 Z" />
<path fill="#ffffff" opacity="1.00" d=" M 175.50 1.01 C 179.90 1.40 185.35 -0.26 188.92 3.10 C 191.38 5.97 189.61 10.09 186.35 11.37 C 187.85 12.01 189.77 12.49 190.36 14.23 C 191.69 17.17 189.94 20.93 186.88 21.92 C 183.19 23.02 179.28 22.31 175.50 22.49 C 175.50 15.33 175.50 8.17 175.50 1.01 M 178.50 3.23 C 178.50 5.66 178.50 8.09 178.50 10.52 C 180.55 10.42 182.68 10.78 184.68 10.16 C 187.29 9.64 188.08 5.62 185.95 4.11 C 183.70 2.76 180.98 3.38 178.50 3.23 M 178.50 12.47 C 178.49 15.07 178.50 17.67 178.50 20.26 C 180.91 20.11 183.48 20.66 185.79 19.77 C 188.54 18.74 188.73 14.17 185.93 13.09 C 183.54 12.24 180.98 12.54 178.50 12.47 Z" />
<path fill="#ffffff" opacity="1.00" d=" M 16.19 4.11 C 18.01 2.20 20.64 2.47 23.02 2.45 C 23.34 3.00 23.99 4.09 24.31 4.63 C 25.94 3.21 27.83 2.27 30.04 2.48 C 30.00 3.86 29.97 5.24 29.93 6.62 C 28.90 6.67 26.84 6.76 25.81 6.81 C 26.29 7.47 27.26 8.79 27.75 9.45 C 31.72 8.17 36.58 9.63 38.17 13.73 C 40.15 18.08 36.81 23.18 32.32 24.00 L 30.36 24.00 C 27.20 23.49 24.26 21.18 23.67 17.93 C 22.92 15.25 24.59 12.83 25.89 10.65 C 25.58 10.23 24.94 9.39 24.63 8.97 C 22.57 11.39 21.40 14.34 21.06 17.49 C 19.12 17.50 17.18 17.50 15.25 17.50 C 14.19 20.62 11.98 23.45 8.53 24.00 L 6.54 24.00 C 3.26 23.45 0.71 20.89 0.00 17.67 L 0.00 15.28 C 0.94 10.17 6.29 8.30 10.91 8.96 C 8.38 7.08 5.19 6.84 2.26 5.97 C 4.71 4.30 7.85 4.42 10.48 5.58 C 14.48 7.58 19.06 6.52 23.34 6.71 C 22.99 6.26 22.30 5.35 21.95 4.90 C 20.01 4.75 18.09 4.53 16.19 4.11 M 2.88 13.84 C 0.64 17.27 3.80 22.37 7.89 21.79 C 10.46 21.88 11.95 19.56 13.09 17.62 C 10.78 17.52 8.47 17.50 6.17 17.21 C 7.08 15.13 8.08 13.08 9.04 11.02 C 6.74 11.14 4.03 11.52 2.88 13.84 M 29.06 11.26 C 29.99 13.52 33.33 15.70 31.19 18.18 C 29.77 16.33 28.42 14.42 27.07 12.52 C 25.55 14.93 24.98 18.46 27.52 20.42 C 30.79 23.72 37.20 20.70 36.51 16.02 C 36.30 12.31 32.32 10.66 29.06 11.26 Z" />
</g>
</svg>
